<svg xmlns="http://www.w3.org/2000/svg" xmlns:xlink="http://www.w3.org/1999/xlink" version="1.1" x="0px" y="0px" viewBox="0 0 32 40" enable-background="new 0 0 32 32" xml:space="preserve"><g display="none"><rect x="-86.73" y="-85.339" display="inline" fill="#000000" width="412.397" height="207"/></g><g display="none"><g display="inline"><g><path d="M16,7c3.007,0,5.453,2.446,5.453,5.453c0,0.495-0.066,0.985-0.197,1.458c-0.053,0.192-0.118,0.384-0.179,0.538     l-0.16,0.363L16,23.899l-4.909-9.072l-0.164-0.371c-0.069-0.175-0.131-0.359-0.182-0.544c-0.131-0.473-0.197-0.964-0.197-1.458     C10.547,9.446,12.993,7,16,7 M16,6c-3.564,0-6.453,2.889-6.453,6.453c0,0.598,0.082,1.176,0.234,1.725     c0.061,0.22,0.133,0.435,0.216,0.645l0.196,0.445L16,26l5.816-10.748l0.176-0.401c0.088-0.219,0.164-0.444,0.227-0.674     c0.152-0.549,0.234-1.128,0.234-1.725C22.453,8.889,19.564,6,16,6L16,6z"/></g><g><path d="M16,9.616c1.532,0,2.778,1.246,2.778,2.778S17.532,15.172,16,15.172s-2.778-1.246-2.778-2.778S14.468,9.616,16,9.616      M16,8.616c-2.087,0-3.778,1.691-3.778,3.778s1.691,3.778,3.778,3.778s3.778-1.691,3.778-3.778S18.087,8.616,16,8.616L16,8.616z"/></g></g><circle display="inline" fill="none" stroke="#000000" stroke-miterlimit="10" cx="16" cy="16" r="15.5"/></g><g display="none"><g display="inline"><circle cx="16" cy="12.394" r="2.778"/><path d="M16,7c-3.007,0-5.453,2.446-5.453,5.453c0,0.495,0.066,0.985,0.197,1.458c0.051,0.186,0.113,0.369,0.182,0.544    l0.164,0.371L16,23.899l4.917-9.086l0.16-0.363c0.061-0.154,0.126-0.345,0.179-0.538c0.131-0.473,0.197-0.964,0.197-1.458    C21.453,9.446,19.007,7,16,7z M16,16.172c-2.086,0-3.778-1.691-3.778-3.778c0-2.086,1.691-3.778,3.778-3.778    c2.087,0,3.778,1.691,3.778,3.778C19.778,14.481,18.087,16.172,16,16.172z"/><path d="M16,0C7.163,0,0,7.163,0,16s7.163,16,16,16s16-7.163,16-16S24.837,0,16,0z M22.219,14.178    c-0.064,0.23-0.14,0.455-0.227,0.674l-0.176,0.401L16,26l-5.808-10.732l-0.196-0.445c-0.083-0.21-0.155-0.425-0.216-0.645    c-0.152-0.549-0.234-1.128-0.234-1.725C9.547,8.889,12.436,6,16,6c3.564,0,6.453,2.889,6.453,6.453    C22.453,13.05,22.371,13.629,22.219,14.178z"/></g></g><g><g><path d="M10.19,14.863l0.189,0.429L16,25.657l5.628-10.379l0.171-0.387c0.085-0.211,0.158-0.428,0.22-0.651    c0.147-0.53,0.226-1.089,0.226-1.666c0-3.441-2.796-6.231-6.245-6.231s-6.245,2.79-6.245,6.231c0,0.577,0.079,1.136,0.226,1.666    C10.04,14.453,10.11,14.661,10.19,14.863z M16,8.343c2.341,0,4.245,1.898,4.245,4.231c0,0.384-0.052,0.765-0.153,1.131    c-0.039,0.139-0.085,0.278-0.138,0.412l-0.123,0.278L16,21.461l-3.823-7.05l-0.139-0.316c-0.048-0.126-0.092-0.256-0.129-0.389    c-0.102-0.367-0.153-0.747-0.153-1.131C11.755,10.241,13.659,8.343,16,8.343z"/><path d="M16,15.804c1.819,0,3.293-1.471,3.293-3.286S17.819,9.232,16,9.232s-3.293,1.471-3.293,3.286S14.181,15.804,16,15.804z     M16,11.232c0.713,0,1.293,0.577,1.293,1.286s-0.58,1.286-1.293,1.286s-1.293-0.577-1.293-1.286S15.287,11.232,16,11.232z"/><path d="M16,31.967c8.822,0,16-7.163,16-15.968S24.822,0.032,16,0.032S0,7.195,0,16S7.178,31.967,16,31.967z M16,2.032    c7.72,0,14,6.266,14,13.968s-6.28,13.968-14,13.968S2,23.702,2,16S8.28,2.032,16,2.032z"/></g></g><g display="none"><g display="inline"><path d="M9.996,14.823l0.196,0.445L16,26l5.816-10.748l0.176-0.401c0.088-0.219,0.164-0.444,0.227-0.674    c0.152-0.549,0.234-1.128,0.234-1.725C22.453,8.889,19.564,6,16,6c-3.564,0-6.453,2.889-6.453,6.453    c0,0.598,0.082,1.176,0.234,1.725C9.842,14.398,9.914,14.613,9.996,14.823z M16,6.5c3.282,0,5.953,2.67,5.953,5.953    c0,0.54-0.073,1.075-0.216,1.592c-0.058,0.21-0.129,0.419-0.203,0.606l-0.158,0.364L16,24.95l-5.35-9.883l-0.188-0.427    c-0.076-0.192-0.143-0.392-0.199-0.595c-0.143-0.517-0.215-1.052-0.215-1.592C10.047,9.17,12.718,6.5,16,6.5z"/><path d="M16,16.172c2.087,0,3.778-1.691,3.778-3.778c0-2.086-1.691-3.778-3.778-3.778c-2.086,0-3.778,1.691-3.778,3.778    C12.222,14.481,13.914,16.172,16,16.172z M16,9.116c1.807,0,3.278,1.47,3.278,3.278s-1.47,3.278-3.278,3.278    s-3.278-1.471-3.278-3.278S14.193,9.116,16,9.116z"/><path d="M16,31.75c8.685,0,15.75-7.065,15.75-15.75S24.685,0.25,16,0.25S0.25,7.315,0.25,16S7.315,31.75,16,31.75z M16,0.75    c8.409,0,15.25,6.841,15.25,15.25S24.409,31.25,16,31.25S0.75,24.409,0.75,16S7.591,0.75,16,0.75z"/></g></g><text x="0" y="47" fill="#000000" font-size="5px" font-weight="bold" font-family="'Helvetica Neue', Helvetica, Arial-Unicode, Arial, Sans-serif">Created by Alfredo Hernandez</text><text x="0" y="52" fill="#000000" font-size="5px" font-weight="bold" font-family="'Helvetica Neue', Helvetica, Arial-Unicode, Arial, Sans-serif">from the Noun Project</text></svg>