<svg xmlns="http://www.w3.org/2000/svg" viewBox="0 0 32 40" enable-background="new 0 0 32 32" x="0px" y="0px"><g><path d="M16 32c-8.822 0-16-7.178-16-16 0-3.621 1.18-7.037 3.412-9.877.341-.434.97-.509 1.404-.168.435.341.51.97.168 1.404-1.952 2.484-2.984 5.473-2.984 8.641 0 7.72 6.28 14 14 14 2.723 0 5.361-.781 7.631-2.261.464-.3 1.083-.171 1.384.292.302.463.171 1.082-.292 1.384-2.596 1.691-5.612 2.585-8.723 2.585zM19.747 27.346c-.409 0-.793-.253-.94-.659-.188-.52.081-1.093.6-1.281 3.944-1.428 6.593-5.209 6.593-9.406 0-1.263-.232-2.495-.69-3.659-.202-.514.051-1.095.564-1.297.512-.203 1.094.05 1.297.564.55 1.4.829 2.877.829 4.392 0 5.036-3.18 9.572-7.912 11.286-.112.04-.228.06-.341.06zM16.006 19.999c-.94 0-1.852-.325-2.578-.935-.907-.762-1.428-1.879-1.428-3.064 0-.441.071-.874.212-1.288.178-.523.746-.801 1.269-.625.523.178.802.746.625 1.269-.07.206-.106.423-.106.644 0 .592.261 1.151.715 1.532.461.388 1.05.543 1.656.435.786-.138 1.458-.81 1.596-1.596.097-.545-.022-1.088-.334-1.527-.309-.434-.784-.732-1.305-.818-.769-.125-1.328-.787-1.328-1.573v-3.453c0-.552.448-1 1-1s1 .448 1 1v3.126c.907.235 1.718.791 2.264 1.561.623.878.862 1.954.674 3.03-.284 1.612-1.608 2.937-3.221 3.221-.237.041-.475.061-.711.061zM15.405 27.983l-.088-.003c-4.711-.264-8.845-3.286-10.53-7.7-.197-.516.062-1.094.577-1.291.519-.195 1.095.062 1.291.578 1.353 3.543 4.599 6.01 8.345 6.383v-2.377c0-.838.641-1.523 1.491-1.594 3.133-.253 5.552-2.918 5.508-6.065-.044-3.162-2.752-5.87-5.914-5.914-1.633-.035-3.146.591-4.298 1.728-1.152 1.136-1.787 2.654-1.787 4.272 0 2.186 1.189 4.199 3.104 5.256.484.268.66.876.393 1.359-.267.482-.875.659-1.358.393-2.553-1.409-4.139-4.094-4.139-7.008 0-2.158.846-4.181 2.383-5.696 1.536-1.515 3.57-2.345 5.73-2.303 4.288.06 7.826 3.597 7.886 7.886.057 4.081-2.991 7.551-6.999 8.051v2.438c0 .441-.185.869-.507 1.174-.295.277-.687.433-1.088.433zM11 12c-.256 0-.512-.098-.707-.293l-2.5-2.5c-.391-.391-.391-1.023 0-1.414s1.023-.391 1.414 0l2.5 2.5c.391.391.391 1.023 0 1.414-.195.195-.451.293-.707.293zM26.827 27.098c-.429 0-.845-.173-1.146-.479l-2.392-2.416c-.389-.393-.385-1.025.008-1.414.392-.388 1.025-.386 1.414.008l2.09 2.111c2.066-2.505 3.199-5.65 3.199-8.908 0-6.394-4.319-11.97-10.503-13.56-.535-.137-.857-.683-.72-1.217.138-.535.685-.854 1.218-.719 7.068 1.817 12.005 8.189 12.005 15.496 0 3.891-1.413 7.641-3.979 10.56-.287.328-.705.524-1.145.537l-.049.001zM21.201 12.311c-.256 0-.512-.098-.707-.293-.391-.39-.391-1.023 0-1.414l2.111-2.112c-1.688-1.486-3.833-2.363-6.083-2.479-.853-.043-1.522-.739-1.522-1.585v-2.393c-2.699.19-5.259 1.147-7.425 2.783-.442.333-1.068.244-1.401-.196-.332-.441-.245-1.068.196-1.401 2.604-1.964 5.703-3.074 8.963-3.208.423-.023.856.145 1.169.445.317.305.498.729.498 1.166v2.417c2.731.227 5.312 1.388 7.301 3.293.309.296.48.696.484 1.125.004.43-.168.851-.473 1.154l-2.404 2.405c-.195.195-.451.293-.707.293zM4.418 17h-3.418c-.552 0-1-.448-1-1s.448-1 1-1h3.041c.401-4.826 3.725-8.999 8.37-10.454.527-.165 1.088.128 1.253.655.165.527-.128 1.088-.655 1.253-3.968 1.243-6.779 4.866-6.995 9.016-.045.858-.746 1.53-1.596 1.53z"/></g><text x="0" y="47" fill="#000000" font-size="5px" font-weight="bold" font-family="'Helvetica Neue', Helvetica, Arial-Unicode, Arial, Sans-serif">Created by ✦ Shmidt Sergey ✦</text><text x="0" y="52" fill="#000000" font-size="5px" font-weight="bold" font-family="'Helvetica Neue', Helvetica, Arial-Unicode, Arial, Sans-serif">from the Noun Project</text></svg>