<svg xmlns="http://www.w3.org/2000/svg" xmlns:xlink="http://www.w3.org/1999/xlink" version="1.1" x="0px" y="0px" viewBox="0 0 512 640" enable-background="new 0 0 512 512" xml:space="preserve"><g><path fill="#000000" d="M62.5,215H43v16.4h196.6V215h-19.5l-8.2-16.4h68.7V2H2v196.6h68.7L62.5,215z M80.8,215l8.2-16.4h104.6   l8.2,16.4H80.8z M18.4,18.4h245.8v131.1H18.4V18.4z M18.4,182.3v-16.4h245.8v16.4H18.4z"/><path fill="#000000" d="M510,280.6H231.4v196.6h68.7l-8.2,16.4h-19.5V510H469v-16.4h-19.5l-8.2-16.4H510V280.6z M310.2,493.6   l8.2-16.4H423l8.2,16.4H310.2z M493.6,460.8H247.8v-16.4h245.8V460.8z M493.6,428.1H247.8V297h245.8V428.1z"/><polygon fill="#000000" points="452.6,239.6 469,239.6 469,67.5 297,67.5 297,83.9 452.6,83.9  "/><polygon fill="#000000" points="59.4,272.4 43,272.4 43,444.5 215,444.5 215,428.1 59.4,428.1  "/></g><text x="0" y="527" fill="#000000" font-size="5px" font-weight="bold" font-family="'Helvetica Neue', Helvetica, Arial-Unicode, Arial, Sans-serif">Created by Icon Fair</text><text x="0" y="532" fill="#000000" font-size="5px" font-weight="bold" font-family="'Helvetica Neue', Helvetica, Arial-Unicode, Arial, Sans-serif">from the Noun Project</text></svg>